<svg id="Capa_1" enable-background="new 0 0 512 512" height="512" viewBox="0 0 512 512" width="512" xmlns="http://www.w3.org/2000/svg"><g><g><path d="m512 256c0 70.518-28.53 134.384-74.672 180.681l-46.286 16.049c-87.482 30.319-182.613 30.34-270.106.051l-46.152-15.977c-46.203-46.306-74.784-110.224-74.784-180.804 0-46.08 12.183-89.343 33.537-126.715.052-.103.103-.205.154-.257 44.086-77.108 127.126-129.028 222.309-129.028s178.223 51.92 222.309 129.028c.052.051.103.154.154.257 21.354 37.372 33.537 80.635 33.537 126.715z" fill="#ffe706"/><g><path d="m512 256c0 70.518-28.53 134.395-74.672 180.681l-46.286 16.049c-87.482 30.319-182.613 30.34-270.106.051l-46.152-15.977c-46.203-46.306-74.784-110.224-74.784-180.804 0-46.08 12.183-89.343 33.537-126.715.052-.103.103-.205.154-.257 25.394 44.383 63.691 80.429 109.823 103.007 5.223 2.56 10.6 4.966 16.028 7.176 4.431 1.799 8.914 3.486 13.458 5.038h.01c25.261 8.667 52.31 13.489 80.429 13.746h5.12c21.93-.206 43.212-3.177 63.507-8.595 10.405-2.766 20.552-6.179 30.391-10.189 5.428-2.21 10.806-4.616 16.028-7.176 17.56-8.605 33.989-19.154 49.01-31.398 24.418-19.853 45.093-44.137 60.813-71.608.052.051.103.154.154.257 21.355 37.371 33.538 80.634 33.538 126.714z" fill="#ffbf03"/></g></g><g><g><g><path d="m316.432 428.98c-4.462 14.023-9.911 27.8-16.327 41.248-6.559 1.902-12.954 4.41-19.082 7.526l-62.129 31.573h-.01c-33.373-4.842-64.648-16.131-92.551-32.56-4.472-2.632-8.862-5.398-13.15-8.297-.493-22.423-10.703-43.839-28.438-58.345l-32.363-26.485h-.062c-4.606-17.334-7.074-35.552-7.074-54.356 0-22.557 3.547-44.302 10.117-64.689l117.637-20.346 140.193-24.243c3.434 9.685 6.395 19.493 8.873 29.394.936 3.701 1.799 7.413 2.591 11.134 11.937 55.713 9.192 113.863-8.225 168.446z" fill="#369cef"/><path d="m300.106 470.228c-6.559 1.902-12.954 4.41-19.082 7.526l-62.139 31.573c-10.076-1.46-19.956-3.516-29.61-6.128-31.039-37.968-51.385-101.691-51.385-173.905 0-28.51 3.167-55.703 8.934-80.512l26.186-4.534 140.193-24.243c3.424 9.685 6.385 19.493 8.862 29.394 18.395 73.264 11.074 151.524-21.959 220.829z" fill="#008add"/><path d="m466.701 329.284c0 27.348-5.202 53.482-14.692 77.468-2.467 6.241-5.233 12.348-8.246 18.29-2.025 3.958-4.164 7.834-6.436 11.638-10.703 10.733-22.341 20.531-34.802 29.25h-72.122c-17.159 0-34.082 4.051-49.38 11.823l-25.055 12.728v-260.575l58.469-24.88c14.671-6.251 30.597-8.975 46.512-7.968l56.546 3.578 5.603.36v-.031c27.359 35.542 43.603 80.039 43.603 128.319z" fill="#0077c8"/><path d="m255.974 118.572-13.02 43.058c-15.839 52.375-44.308 100.056-82.909 138.845l-22.113 22.219v.012c-1.875-1.109-3.691-2.524-5.378-4.293-10.013-10.508-12.006-27.184-24.908-36.43-11.051-8.055-34.555-13.869-48.306-16.664-1.297-.259-2.606-.46-3.927-.59-.012-.047-.035-.082-.047-.13 27.302-84.724 106.79-146.027 200.608-146.027z" fill="#66e1d2"/><path d="m265.055 267.702-9.081 96.53c-.401-.578-.79-1.156-1.144-1.769-6.746-11.298-4.93-24.306-12.631-34.461-7.854-10.366-24.731-18.386-37.551-18.08-10.838.236-20.78 5.555-30.675 9.989-11.452 5.142-25.203 9.081-36.041 2.783 1.958-113.182 53.944-203.91 117.829-204.122h.212l9.175 102.462c1.393 15.521 1.358 31.147-.093 46.668z" fill="#00cec9"/><path d="m264.904 488.787c2.845 2.909 3.015 7.514.555 10.755l-9.459 12.458h-.031c-12.594 0-24.983-.915-37.084-2.673 4.791-8.194 11.926-14.774 22.156-20.614 4.986-2.848 10.189-5.706 14.928-9.037l8.883 9.058c.018.018.035.035.052.053z" fill="#00cec9"/><path d="m227.537 488.831-8.802-20.163 7.332-3.2 8.802 20.163zm-12.402-28.411-8.802-20.162 7.332-3.201 8.802 20.162zm-12.404-28.411-8.802-20.162 7.332-3.201 8.802 20.162zm-12.402-28.41-8.802-20.163 7.332-3.2 8.802 20.163zm-12.403-28.411-8.802-20.163 7.332-3.2 8.802 20.163zm-12.403-28.411-8.802-20.163 7.332-3.2 8.802 20.162zm-12.403-28.41-8.802-20.163 7.332-3.2 8.802 20.163z" fill="#323b5a"/><path d="m417.574 339.664c6.446 10.328 12.892 20.657 19.338 30.985 3.945 6.322 8.056 13.485 6.529 20.779-1.543 7.365-8.675 12.513-16.04 14.054-7.365 1.542-14.992.199-22.396-1.146-13.291-2.413-92.615-26.907-55.768-44.604 13.314-6.394 28.56 5.483 41.588-1.857 10.511-5.921 12.856-40.47 26.749-18.211z" fill="#00c3b4"/><path d="m157.137 443.538-.144.689c-1.182 1.275-2.478 2.467-3.753 3.639-9.51 8.832-16.09 20.521-26.361 28.489-.175.134-.36.277-.545.411-18.866-11.104-36.179-24.561-51.55-39.963-9.808-16.532-17.385-34.421-22.403-53.164 4.02-3.547 8.369-6.6 13.324-8.667 10.014-4.133 23.153-2.899 29.63 5.819 5.84 7.845 4.76 19.205 10.302 27.266 5.285 7.659 15.206 10.466 24.428 11.71 4.39.586 12.841.833 19.956 2.601 6.026 5.255 8.75 13.346 7.116 21.17z" fill="#66e1d2"/><g fill="#00c3b4"><path d="m402.527 465.93c-36.169 25.292-79.165 41.484-125.676 45.227-6.879.565-13.829.843-20.851.843h-.031v-32.324c5.716-3.969 10.764-8.626 14.013-14.743 4.164-7.803 4.77-16.943 5.86-25.713 1.11-8.78 3.043-18.013 9.119-24.449 6.086-6.436 17.55-8.482 23.626-2.046 5.079 5.387 4.822 14.579 10.497 19.37 6.169 5.202 15.37 2.354 23.389 1.367 13.941-1.717 28.345 4.061 37.937 14.188 4.112 4.339 6.282 9.726 11.227 13.006 3.323 2.2 7.116 3.67 10.89 5.274z"/><path d="m421.213 198.509c-38.6-48.696-98.275-79.937-165.239-79.937v245.671c5.319 7.607 14.376 13.114 23.422 11.404 15.237-2.878 20.249-23.41 15.013-37.999-5.224-14.588-16.77-26.064-23.304-40.122-6.557-14.046-5.779-34.236 8.09-41.147 16.534-8.232 36.725 8.833 54.203 2.878 19.2-6.522 21.004-34.637 37.727-46.077 14.483-9.895 35.003-3.975 50.807-11.593.389-.189.778-.378 1.168-.59-.625-.813-1.25-1.639-1.887-2.488z"/></g></g></g><path d="m160.222 439.993c-.66 1.132-1.439 2.182-2.288 3.184-.307.354-.625.708-.943 1.05-2.571-7.006-4.906-14.306-6.97-21.854 5.413 1.344 10.048 3.562 11.546 7.477 1.25 3.291.424 7.089-1.345 10.143z" fill="#00cec9"/><g><path d="m141.353 278.669-.495 1.014-26.842-26.854c-14.824-14.825-14.824-38.86 0-53.684 7.418-7.418 17.124-11.121 26.842-11.121 14.352 28.47 14.529 62.023.495 90.645z" fill="#ff3ea8"/><path d="m167.705 252.832-26.843 26.848v-91.66c9.712 0 19.433 3.71 26.843 11.121 14.831 14.825 14.831 38.865 0 53.691z" fill="#ff0074"/><path d="m140.857 247.157c-5.413 0-10.827-2.076-14.966-6.203-8.256-8.267-8.256-21.665 0-29.932 4.139-4.128 9.553-6.192 14.966-6.192l.943 1.486c7.902 12.572 7.525 28.647-.943 40.841z" fill="#fff"/><path d="m155.824 240.951c-4.129 4.134-9.551 6.201-14.962 6.201v-42.327c5.411 0 10.833 2.067 14.962 6.197 8.269 8.263 8.269 21.665 0 29.929z" fill="#d1f6ff"/></g><g><path d="m323.862 200.208-.495 1.014-26.842-26.854c-14.824-14.824-14.824-38.86 0-53.684 7.418-7.418 17.124-11.121 26.842-11.121 14.352 28.47 14.529 62.022.495 90.645z" fill="#ff3ea8"/><path d="m350.214 174.37-26.843 26.848v-91.66c9.712 0 19.433 3.71 26.843 11.12 14.831 14.827 14.831 38.867 0 53.692z" fill="#ff0074"/><path d="m323.366 168.696c-5.413 0-10.826-2.076-14.966-6.203-8.256-8.267-8.256-21.665 0-29.932 4.14-4.128 9.553-6.192 14.966-6.192l.944 1.486c7.902 12.572 7.524 28.646-.944 40.841z" fill="#fff"/><path d="m338.333 162.489c-4.129 4.134-9.551 6.201-14.962 6.201v-42.327c5.411 0 10.833 2.067 14.962 6.197 8.269 8.264 8.269 21.666 0 29.929z" fill="#d1f6ff"/></g><g><path d="m412.457 377.091-.495 1.014-26.842-26.854c-14.824-14.824-14.824-38.86 0-53.684 7.418-7.418 17.124-11.121 26.842-11.121 14.352 28.469 14.529 62.022.495 90.645z" fill="#ff3ea8"/><path d="m438.81 351.253-26.843 26.848v-91.66c9.712 0 19.433 3.71 26.843 11.121 14.83 14.825 14.83 38.865 0 53.691z" fill="#ff0074"/><path d="m411.962 345.578c-5.413 0-10.826-2.076-14.966-6.203-8.255-8.267-8.255-21.665 0-29.932 4.14-4.128 9.553-6.192 14.966-6.192l.944 1.486c7.901 12.572 7.524 28.647-.944 40.841z" fill="#fff"/><path d="m426.929 339.372c-4.129 4.134-9.551 6.201-14.962 6.201v-42.327c5.412 0 10.833 2.067 14.962 6.197 8.268 8.263 8.268 21.665 0 29.929z" fill="#d1f6ff"/></g><g><path d="m240.506 503.396-.495 1.014-26.842-26.854c-14.824-14.824-14.824-38.86 0-53.684 7.418-7.418 17.124-11.121 26.842-11.121 14.353 28.469 14.53 62.022.495 90.645z" fill="#ff3ea8"/><path d="m266.859 477.558-26.843 26.848v-91.66c9.712 0 19.433 3.71 26.843 11.121 14.83 14.825 14.83 38.865 0 53.691z" fill="#ff0074"/><path d="m240.011 471.884c-5.413 0-10.827-2.076-14.966-6.203-8.255-8.267-8.255-21.665 0-29.932 4.139-4.128 9.553-6.192 14.966-6.192l.943 1.486c7.902 12.572 7.525 28.646-.943 40.841z" fill="#fff"/><path d="m254.978 465.677c-4.129 4.134-9.551 6.201-14.962 6.201v-42.327c5.411 0 10.833 2.067 14.962 6.197 8.268 8.263 8.268 21.666 0 29.929z" fill="#d1f6ff"/></g><g fill="#323b5a"><g><path d="m155.604 266.909h11v8h-11z" transform="matrix(.918 -.398 .398 .918 -94.406 86.353)"/><path d="m175.184 269.168-3.18-7.341 18.193-7.882 3.18 7.341zm25.636-11.107-3.18-7.341 18.193-7.882 3.18 7.341zm25.637-11.106-3.18-7.341 18.193-7.883 3.18 7.341zm25.637-11.108-3.18-7.341 18.193-7.882 3.18 7.341zm25.636-11.107-3.18-7.341 18.193-7.882 3.18 7.341z"/><path d="m301.324 203.776h11v8h-11z" transform="matrix(.918 -.398 .398 .918 -57.307 139.071)"/></g><path d="m398.046 380.481-6.812-2.557 2.811-7.49 6.812 2.557zm-15.238-5.719-20.598-7.73 2.811-7.49 20.598 7.731zm-29.024-10.893-20.597-7.731 2.81-7.49 20.597 7.731zm-29.023-10.894-20.597-7.73 2.811-7.49 20.597 7.73zm-29.023-10.893-20.598-7.73 2.811-7.49 20.598 7.73zm-29.023-10.893-20.597-7.731 2.811-7.49 20.597 7.731zm-29.023-10.894-20.598-7.73 2.811-7.49 20.598 7.73zm-29.023-10.893-20.597-7.731 2.811-7.49 20.597 7.731zm-29.024-10.893-20.597-7.73 2.811-7.49 20.597 7.73z"/></g></g></g></svg>